<!-- <svg width="27" height="26" viewBox="0 0 27 26" fill="none" xmlns="http://www.w3.org/2000/svg">
    <circle cx="9" cy="23" r="2.25" stroke="white" stroke-width="1.5"/>
    <circle cx="22" cy="23" r="2.25" stroke="white" stroke-width="1.5"/>
    <path d="M0 3H3.57143L7.57143 17H23L25.5 8.5" stroke="white" stroke-width="1.5"/>
    <path d="M12.5403 10.356C12.8123 10.14 12.9363 10.04 12.9123 10.056C13.6963 9.408 14.3123 8.876 14.7603 8.46C15.2163 8.044 15.6003 7.608 15.9123 7.152C16.2243 6.696 16.3803 6.252 16.3803 5.82C16.3803 5.492 16.3043 5.236 16.1523 5.052C16.0003 4.868 15.7723 4.776 15.4683 4.776C15.1643 4.776 14.9243 4.892 14.7483 5.124C14.5803 5.348 14.4963 5.668 14.4963 6.084H12.5163C12.5323 5.404 12.6763 4.836 12.9483 4.38C13.2283 3.924 13.5923 3.588 14.0403 3.372C14.4963 3.156 15.0003 3.048 15.5523 3.048C16.5043 3.048 17.2203 3.292 17.7003 3.78C18.1883 4.268 18.4323 4.904 18.4323 5.688C18.4323 6.544 18.1403 7.34 17.5563 8.076C16.9723 8.804 16.2283 9.516 15.3243 10.212H18.5643V11.88H12.5403V10.356Z" fill="white"/>
    </svg> -->
    <svg width="27" height="24" viewBox="0 0 27 24" fill="none" xmlns="http://www.w3.org/2000/svg">
        <circle cx="9" cy="21" r="2" stroke="white" stroke-width="2"/>
        <circle cx="22" cy="21" r="2" stroke="white" stroke-width="2"/>
        <path d="M0 1H3.57143L7.57143 15H23L25.5 6.5" stroke="white" stroke-width="2"/>
        </svg>
        